<svg width="294" height="80" viewBox="0 0 294 80" fill="none" xmlns="http://www.w3.org/2000/svg">
  <path fill-rule="evenodd" clip-rule="evenodd" d="M117.935 28.1791C120.347 31.0652 121.553 35.4224 121.553 41.2508V60.6692C121.553 62.5185 120.978 63.9756 119.828 65.0404C118.678 66.1052 117.122 66.6376 115.159 66.6376C113.195 66.6376 111.653 66.1052 110.531 65.0404C109.409 63.9756 108.849 62.5185 108.849 60.6692V41.8392C108.849 39.0371 108.33 36.9916 107.292 35.7026C106.254 34.4137 104.642 33.7692 102.454 33.7692C99.8181 33.7692 97.7007 34.6098 96.1021 36.2911C94.5036 37.9723 93.7043 40.214 93.7043 43.0161V60.6692C93.7043 62.5185 93.1434 63.9756 92.0216 65.0404C90.8998 66.1052 89.3574 66.6376 87.3942 66.6376C85.4311 66.6376 83.8746 66.1052 82.7248 65.0404C81.5749 63.9756 81 62.5185 81 60.6692V29.8183C81 28.081 81.603 26.6799 82.8089 25.6152C84.0148 24.5504 85.5713 24.018 87.4784 24.018C89.2171 24.018 90.6334 24.5364 91.7272 25.5731C92.8209 26.6099 93.3678 27.9409 93.3678 29.5661V30.743C94.8261 28.5013 96.7191 26.792 99.0469 25.6152C101.375 24.4383 103.997 23.8498 106.913 23.8498C111.849 23.8498 115.523 25.2929 117.935 28.1791ZM134.66 64.1577C131.35 62.3924 128.798 59.8986 127.003 56.6762C125.208 53.4538 124.311 49.657 124.311 45.2858C124.311 40.9145 125.208 37.1177 127.003 33.8953C128.798 30.6729 131.35 28.1931 134.66 26.4558C137.969 24.7185 141.811 23.8498 146.186 23.8498C150.561 23.8498 154.403 24.7185 157.712 26.4558C161.022 28.1931 163.574 30.6729 165.369 33.8953C167.163 37.1177 168.061 40.9145 168.061 45.2858C168.061 49.657 167.163 53.4538 165.369 56.6762C163.574 59.8986 161.022 62.3924 157.712 64.1577C154.403 65.9231 150.561 66.8057 146.186 66.8057C141.811 66.8057 137.969 65.9231 134.66 64.1577ZM155.441 45.2858C155.441 41.3068 154.641 38.3366 153.043 36.3751C151.444 34.4137 149.159 33.433 146.186 33.433C140.016 33.433 136.931 37.3839 136.931 45.2858C136.931 53.1876 140.016 57.1385 146.186 57.1385C152.356 57.1385 155.441 53.1876 155.441 45.2858ZM231.819 27.9269C234.231 30.6449 235.437 35.0862 235.437 41.2508V60.6692C235.437 62.6306 234.848 64.1157 233.67 65.1244C232.492 66.1332 230.978 66.6376 229.127 66.6376C227.332 66.6376 225.818 66.1332 224.584 65.1244C223.35 64.1157 222.733 62.6306 222.733 60.6692V41.0826C222.733 38.3926 222.27 36.5012 221.345 35.4084C220.419 34.3156 219.003 33.7692 217.096 33.7692C214.74 33.7692 212.861 34.5818 211.459 36.207C210.056 37.8322 209.355 40.1019 209.355 43.0161V60.6692C209.355 62.6306 208.766 64.1157 207.589 65.1244C206.411 66.1332 204.896 66.6376 203.045 66.6376C201.25 66.6376 199.736 66.1332 198.502 65.1244C197.268 64.1157 196.651 62.6306 196.651 60.6692V41.0826C196.651 38.3926 196.188 36.5012 195.263 35.4084C194.337 34.3156 192.921 33.7692 191.014 33.7692C188.658 33.7692 186.779 34.5818 185.377 36.207C183.975 37.8322 183.274 40.1019 183.274 43.0161V60.6692C183.274 62.6306 182.671 64.1157 181.465 65.1244C180.259 66.1332 178.758 66.6376 176.964 66.6376C175.169 66.6376 173.654 66.1332 172.42 65.1244C171.186 64.1157 170.569 62.6306 170.569 60.6692V29.8183C170.569 27.9689 171.2 26.5398 172.462 25.5311C173.724 24.5223 175.253 24.018 177.048 24.018C178.73 24.018 180.133 24.5083 181.254 25.4891C182.376 26.4698 182.937 27.8288 182.937 29.5661V30.4067C184.283 28.2771 186.036 26.6519 188.196 25.5311C190.355 24.4103 192.809 23.8498 195.557 23.8498C198.53 23.8498 201.04 24.4523 203.087 25.6572C205.135 26.8621 206.719 28.8095 207.841 31.4995C209.131 29.1458 210.968 27.2824 213.352 25.9094C215.736 24.5364 218.442 23.8498 221.471 23.8498C225.958 23.8498 229.407 25.2088 231.819 27.9269ZM240.601 65.1244C239.395 64.1157 238.792 62.6306 238.792 60.6692V29.9864C238.792 28.0249 239.409 26.5398 240.643 25.5311C241.877 24.5223 243.392 24.018 245.186 24.018C246.981 24.018 248.482 24.5223 249.688 25.5311C250.894 26.5398 251.497 28.0249 251.497 29.9864V60.6692C251.497 62.6306 250.894 64.1157 249.688 65.1244C248.482 66.1332 246.981 66.6376 245.186 66.6376C243.336 66.6376 241.807 66.1332 240.601 65.1244ZM239.886 16.7001C238.596 15.4329 237.951 13.7175 237.951 11.5539C237.951 9.39033 238.596 7.6904 239.886 6.45407C241.176 5.21774 242.943 4.59959 245.186 4.59959C247.374 4.59959 249.127 5.23319 250.445 6.50043C251.763 7.76767 252.422 9.45215 252.422 11.5539C252.422 13.7175 251.777 15.4329 250.487 16.7001C249.197 17.9674 247.43 18.601 245.186 18.601C242.943 18.601 241.176 17.9674 239.886 16.7001ZM291.908 55.2051C292.609 56.1018 292.959 57.2506 292.959 58.6517C292.959 59.6044 292.679 60.487 292.118 61.2996C291.557 62.1122 290.772 62.7987 289.762 63.3591C287.855 64.3679 285.64 65.1945 283.116 65.839C280.592 66.4835 278.264 66.8057 276.132 66.8057C271.645 66.8057 267.733 65.9371 264.396 64.1998C261.058 62.4625 258.492 59.9827 256.697 56.7602C254.902 53.5378 254.005 49.7411 254.005 45.3698C254.005 41.1667 254.874 37.4399 256.613 34.1895C258.352 30.9391 260.764 28.4032 263.849 26.5819C266.934 24.7605 270.439 23.8498 274.366 23.8498C278.124 23.8498 281.419 24.6765 284.251 26.3297C287.084 27.9829 289.285 30.3366 290.856 33.3909C292.426 36.4452 293.212 40.0178 293.212 44.1089C293.212 45.3418 292.917 46.2805 292.328 46.925C291.739 47.5694 290.912 47.8917 289.846 47.8917H266.289C266.681 51.1982 267.691 53.5939 269.318 55.079C270.944 56.5641 273.272 57.3067 276.301 57.3067C277.927 57.3067 279.386 57.1105 280.676 56.7182C281.966 56.3259 283.396 55.7935 284.967 55.121C285.752 54.7848 286.509 54.4906 287.238 54.2384C287.967 53.9862 288.612 53.8601 289.173 53.8601C290.295 53.8601 291.206 54.3084 291.908 55.2051ZM268.897 34.9041C267.438 36.4452 266.569 38.6728 266.289 41.587H282.527C282.358 38.6168 281.615 36.3751 280.297 34.862C278.979 33.3489 277.114 32.5923 274.702 32.5923C272.29 32.5923 270.355 33.3629 268.897 34.9041Z" fill="black" fill-opacity="0.02"/>
  <path fill-rule="evenodd" clip-rule="evenodd" d="M117.935 26.5795C120.347 29.4656 121.553 33.8228 121.553 39.6512V59.0696C121.553 60.9189 120.978 62.376 119.828 63.4408C118.678 64.5056 117.122 65.038 115.159 65.038C113.195 65.038 111.653 64.5056 110.531 63.4408C109.409 62.376 108.849 60.9189 108.849 59.0696V40.2396C108.849 37.4375 108.33 35.392 107.292 34.103C106.254 32.8141 104.642 32.1696 102.454 32.1696C99.8181 32.1696 97.7007 33.0102 96.1021 34.6915C94.5036 36.3727 93.7043 38.6144 93.7043 41.4165V59.0696C93.7043 60.9189 93.1434 62.376 92.0216 63.4408C90.8998 64.5056 89.3574 65.038 87.3942 65.038C85.4311 65.038 83.8746 64.5056 82.7248 63.4408C81.5749 62.376 81 60.9189 81 59.0696V28.2187C81 26.4814 81.603 25.0804 82.8089 24.0156C84.0148 22.9508 85.5713 22.4184 87.4784 22.4184C89.2171 22.4184 90.6334 22.9368 91.7272 23.9735C92.8209 25.0103 93.3678 26.3413 93.3678 27.9665V29.1434C94.8261 26.9017 96.7191 25.1924 99.0469 24.0156C101.375 22.8387 103.997 22.2503 106.913 22.2503C111.849 22.2503 115.523 23.6933 117.935 26.5795ZM134.66 62.5582C131.35 60.7928 128.798 58.299 127.003 55.0766C125.208 51.8542 124.311 48.0574 124.311 43.6862C124.311 39.3149 125.208 35.5181 127.003 32.2957C128.798 29.0733 131.35 26.5935 134.66 24.8562C137.969 23.1189 141.811 22.2503 146.186 22.2503C150.561 22.2503 154.403 23.1189 157.712 24.8562C161.022 26.5935 163.574 29.0733 165.369 32.2957C167.163 35.5181 168.061 39.3149 168.061 43.6862C168.061 48.0574 167.163 51.8542 165.369 55.0766C163.574 58.299 161.022 60.7928 157.712 62.5582C154.403 64.3235 150.561 65.2061 146.186 65.2061C141.811 65.2061 137.969 64.3235 134.66 62.5582ZM155.441 43.6862C155.441 39.7072 154.641 36.737 153.043 34.7756C151.444 32.8141 149.159 31.8334 146.186 31.8334C140.016 31.8334 136.931 35.7843 136.931 43.6862C136.931 51.5881 140.016 55.539 146.186 55.539C152.356 55.539 155.441 51.5881 155.441 43.6862ZM231.819 26.3273C234.231 29.0453 235.437 33.4866 235.437 39.6512V59.0696C235.437 61.031 234.848 62.5161 233.67 63.5249C232.492 64.5336 230.978 65.038 229.127 65.038C227.332 65.038 225.818 64.5336 224.584 63.5249C223.35 62.5161 222.733 61.031 222.733 59.0696V39.483C222.733 36.793 222.27 34.9016 221.345 33.8088C220.419 32.716 219.003 32.1696 217.096 32.1696C214.74 32.1696 212.861 32.9822 211.459 34.6074C210.056 36.2326 209.355 38.5023 209.355 41.4165V59.0696C209.355 61.031 208.766 62.5161 207.589 63.5249C206.411 64.5336 204.896 65.038 203.045 65.038C201.25 65.038 199.736 64.5336 198.502 63.5249C197.268 62.5161 196.651 61.031 196.651 59.0696V39.483C196.651 36.793 196.188 34.9016 195.263 33.8088C194.337 32.716 192.921 32.1696 191.014 32.1696C188.658 32.1696 186.779 32.9822 185.377 34.6074C183.975 36.2326 183.274 38.5023 183.274 41.4165V59.0696C183.274 61.031 182.671 62.5161 181.465 63.5249C180.259 64.5336 178.758 65.038 176.964 65.038C175.169 65.038 173.654 64.5336 172.42 63.5249C171.186 62.5161 170.569 61.031 170.569 59.0696V28.2187C170.569 26.3693 171.2 24.9403 172.462 23.9315C173.724 22.9228 175.253 22.4184 177.048 22.4184C178.73 22.4184 180.133 22.9087 181.254 23.8895C182.376 24.8702 182.937 26.2292 182.937 27.9665V28.8071C184.283 26.6775 186.036 25.0523 188.196 23.9315C190.355 22.8107 192.809 22.2503 195.557 22.2503C198.53 22.2503 201.04 22.8527 203.087 24.0576C205.135 25.2625 206.719 27.2099 207.841 29.8999C209.131 27.5462 210.968 25.6828 213.352 24.3098C215.736 22.9368 218.442 22.2503 221.471 22.2503C225.958 22.2503 229.407 23.6093 231.819 26.3273ZM240.601 63.5249C239.395 62.5161 238.792 61.031 238.792 59.0696V28.3868C238.792 26.4254 239.409 24.9403 240.643 23.9315C241.877 22.9228 243.392 22.4184 245.186 22.4184C246.981 22.4184 248.482 22.9228 249.688 23.9315C250.894 24.9403 251.497 26.4254 251.497 28.3868V59.0696C251.497 61.031 250.894 62.5161 249.688 63.5249C248.482 64.5336 246.981 65.038 245.186 65.038C243.336 65.038 241.807 64.5336 240.601 63.5249ZM239.886 15.1005C238.596 13.8333 237.951 12.1179 237.951 9.95433C237.951 7.79074 238.596 6.09082 239.886 4.85449C241.176 3.61815 242.943 3 245.186 3C247.374 3 249.127 3.6336 250.445 4.90084C251.763 6.16808 252.422 7.85256 252.422 9.95433C252.422 12.1179 251.777 13.8333 250.487 15.1005C249.197 16.3678 247.43 17.0014 245.186 17.0014C242.943 17.0014 241.176 16.3678 239.886 15.1005ZM291.908 53.6055C292.609 54.5022 292.959 55.651 292.959 57.0521C292.959 58.0048 292.679 58.8874 292.118 59.7C291.557 60.5126 290.772 61.1991 289.762 61.7596C287.855 62.7683 285.64 63.5949 283.116 64.2394C280.592 64.8839 278.264 65.2061 276.132 65.2061C271.645 65.2061 267.733 64.3375 264.396 62.6002C261.058 60.8629 258.492 58.3831 256.697 55.1607C254.902 51.9383 254.005 48.1415 254.005 43.7702C254.005 39.5671 254.874 35.8404 256.613 32.5899C258.352 29.3395 260.764 26.8037 263.849 24.9823C266.934 23.1609 270.439 22.2503 274.366 22.2503C278.124 22.2503 281.419 23.0769 284.251 24.7301C287.084 26.3833 289.285 28.7371 290.856 31.7913C292.426 34.8456 293.212 38.4182 293.212 42.5093C293.212 43.7422 292.917 44.6809 292.328 45.3254C291.739 45.9698 290.912 46.2921 289.846 46.2921H266.289C266.681 49.5986 267.691 51.9943 269.318 53.4794C270.944 54.9645 273.272 55.7071 276.301 55.7071C277.927 55.7071 279.386 55.5109 280.676 55.1186C281.966 54.7263 283.396 54.194 284.967 53.5215C285.752 53.1852 286.509 52.891 287.238 52.6388C287.967 52.3866 288.612 52.2605 289.173 52.2605C290.295 52.2605 291.206 52.7088 291.908 53.6055ZM268.897 33.3045C267.438 34.8456 266.569 37.0732 266.289 39.9874H282.527C282.358 37.0172 281.615 34.7756 280.297 33.2624C278.979 31.7493 277.114 30.9928 274.702 30.9928C272.29 30.9928 270.355 31.7633 268.897 33.3045Z" fill="#00A4E4"/>
  <path d="M6.60126 22.1555C6.03116 16.4157 10.2221 11.3004 15.962 10.7303L57.5338 6.60127C63.2737 6.03117 68.3889 10.2221 68.959 15.962L73.0881 57.5338C73.6582 63.2737 69.4673 68.389 63.7274 68.9591L22.1555 73.0881C16.4156 73.6582 11.3004 69.4673 10.7303 63.7274L6.60126 22.1555Z" fill="#00A4E4"/>
  <g clip-path="url(#clip0_1722_2138)">
  <path d="M55.3213 46.6957L48.9881 47.3247C48.5509 47.3682 48.2317 47.7578 48.2751 48.195L48.9041 54.5282C48.9475 54.9654 49.3372 55.2847 49.7744 55.2412L56.1076 54.6122C56.5448 54.5688 56.8641 54.1792 56.8206 53.7419L56.1916 47.4087C56.1482 46.9715 55.7585 46.6523 55.3213 46.6957Z" fill="white"/>
  <path d="M46.7758 41.1488L42.0259 41.6205C41.5886 41.664 41.2694 42.0536 41.3128 42.4908L41.7846 47.2407C41.828 47.678 42.2177 47.9972 42.6549 47.9538L47.4048 47.482C47.842 47.4386 48.1613 47.0489 48.1178 46.6117L47.6461 41.8618C47.6026 41.4246 47.213 41.1053 46.7758 41.1488Z" fill="white"/>
  <path d="M62.4408 53.9832L57.6909 54.455C57.2537 54.4984 56.9345 54.888 56.9779 55.3252L57.4497 60.0751C57.4931 60.5124 57.8827 60.8316 58.32 60.7882L63.0699 60.3164C63.5071 60.273 63.8263 59.8833 63.7829 59.4461L63.3111 54.6962C63.2677 54.259 62.8781 53.9398 62.4408 53.9832Z" fill="white"/>
  <path d="M61.0255 39.7334L57.8589 40.048C57.4217 40.0914 57.1024 40.481 57.1459 40.9182L57.4604 44.0849C57.5038 44.5221 57.8935 44.8413 58.3307 44.7979L61.4973 44.4834C61.9345 44.4399 62.2537 44.0503 62.2103 43.6131L61.8958 40.4465C61.8524 40.0093 61.4627 39.69 61.0255 39.7334Z" fill="white"/>
  <path d="M46.7651 57.1391L43.5984 57.4536C43.1612 57.497 42.842 57.8866 42.8854 58.3239L43.1999 61.4905C43.2434 61.9277 43.633 62.2469 44.0702 62.2035L47.2368 61.889C47.674 61.8456 47.9933 61.4559 47.9499 61.0187L47.6353 57.8521C47.5919 57.4149 47.2023 57.0956 46.7651 57.1391Z" fill="white"/>
  <path d="M56.2917 16.2198L42.042 17.6351C41.2021 17.7185 40.4298 18.1321 39.8949 18.785C39.3601 19.4378 39.1064 20.2764 39.1899 21.1162L40.6052 35.366C40.6886 36.2058 41.1022 36.9781 41.7551 37.513C42.4079 38.0478 43.2465 38.3015 44.0863 38.2181L58.336 36.8027C59.1759 36.7193 59.9482 36.3057 60.4831 35.6529C61.0179 35 61.2715 34.1614 61.1881 33.3216L59.7728 19.0719C59.6894 18.232 59.2758 17.4597 58.6229 16.9249C57.9701 16.39 57.1315 16.1364 56.2917 16.2198ZM54.4618 29.9924C54.4826 30.2023 54.4192 30.412 54.2855 30.5752C54.1518 30.7384 53.9587 30.8418 53.7488 30.8627L47.4155 31.4917C47.2056 31.5125 46.9959 31.4491 46.8327 31.3154C46.6695 31.1817 46.5661 30.9886 46.5453 30.7787L45.9162 24.4455C45.8954 24.2355 45.9588 24.0259 46.0925 23.8626C46.2262 23.6994 46.4193 23.596 46.6292 23.5752L52.9625 22.9461C53.1724 22.9253 53.3821 22.9887 53.5453 23.1224C53.7085 23.2561 53.8119 23.4492 53.8327 23.6592L54.4618 29.9924ZM32.5421 18.5787L18.2924 19.994C17.4526 20.0774 16.6803 20.491 16.1454 21.1439C15.6105 21.7967 15.3569 22.6353 15.4403 23.4751L16.8556 37.7248C16.939 38.5647 17.3527 39.337 18.0055 39.8718C18.6583 40.4067 19.4969 40.6603 20.3368 40.5769L34.5865 39.1616C35.4263 39.0782 36.1986 38.6646 36.7335 38.0117C37.2684 37.3589 37.522 36.5203 37.4386 35.6805L36.0233 21.4307C35.9398 20.5909 35.5262 19.8186 34.8734 19.2837C34.2205 18.7489 33.382 18.4952 32.5421 18.5787ZM30.7122 32.3513C30.7331 32.5612 30.6697 32.7709 30.5359 32.9341C30.4022 33.0973 30.2092 33.2007 29.9992 33.2215L23.666 33.8506C23.456 33.8714 23.2464 33.808 23.0832 33.6743C22.92 33.5406 22.8166 33.3475 22.7957 33.1375L22.1667 26.8043C22.1458 26.5944 22.2092 26.3847 22.3429 26.2215C22.4767 26.0583 22.6697 25.9549 22.8797 25.934L29.2129 25.305C29.4229 25.2842 29.6325 25.3476 29.7957 25.4813C29.9589 25.615 30.0623 25.8081 30.0832 26.018L30.7122 32.3513ZM34.901 42.3282L20.6513 43.7435C19.8114 43.8269 19.0391 44.2406 18.5043 44.8934C17.9694 45.5462 17.7158 46.3848 17.7992 47.2247L19.2145 61.4744C19.2979 62.3142 19.7115 63.0865 20.3644 63.6214C21.0172 64.1563 21.8558 64.4099 22.6956 64.3265L36.9454 62.9112C37.7852 62.8277 38.5575 62.4141 39.0924 61.7613C39.6272 61.1084 39.8809 60.2699 39.7975 59.43L38.3821 45.1803C38.2987 44.3405 37.8851 43.5682 37.2323 43.0333C36.5794 42.4984 35.7408 42.2448 34.901 42.3282ZM33.0711 56.1008C33.0919 56.3108 33.0285 56.5204 32.8948 56.6836C32.7611 56.8468 32.568 56.9502 32.3581 56.9711L26.0249 57.6001C25.8149 57.621 25.6053 57.5576 25.442 57.4238C25.2788 57.2901 25.1754 57.0971 25.1546 56.8871L24.5255 50.5539C24.5047 50.3439 24.5681 50.1343 24.7018 49.9711C24.8355 49.8079 25.0286 49.7045 25.2386 49.6836L31.5718 49.0546C31.7817 49.0337 31.9914 49.0971 32.1546 49.2308C32.3178 49.3646 32.4212 49.5576 32.4421 49.7676L33.0711 56.1008Z" fill="white"/>
  </g>
  <defs>
  <clipPath id="clip0_1722_2138">
  <rect width="50.915" height="50.915" fill="white" transform="translate(11.6447 17.4564) rotate(-5.67217)"/>
  </clipPath>
  </defs>
  </svg>
  